<?xml version="1.0" standalone="no"?>
<!DOCTYPE svg PUBLIC "-//W3C//DTD SVG 20010904//EN"
 "http://www.w3.org/TR/2001/REC-SVG-20010904/DTD/svg10.dtd">
<svg version="1.0" xmlns="http://www.w3.org/2000/svg"
 width="25.000000pt" height="25.000000pt" viewBox="0 0 25.000000 25.000000"
 preserveAspectRatio="xMidYMid meet">

<g transform="translate(0.000000,25.000000) scale(0.100000,-0.100000)"
fill="#000000" stroke="none">
<path d="M55 200 c-4 -6 -4 -14 -1 -17 3 -4 6 -1 6 5 0 15 126 16 133 2 3 -6
4 -5 3 2 -3 17 -131 24 -141 8z"/>
<path d="M27 163 c-10 -10 -8 -23 4 -23 5 0 8 4 5 9 -4 5 0 12 6 14 7 3 8 6 2
6 -6 1 -14 -2 -17 -6z"/>
<path d="M210 163 c5 -2 8 -9 4 -14 -3 -5 0 -9 6 -9 15 0 7 23 -8 26 -7 1 -8
0 -2 -3z"/>
<path d="M22 93 c-2 -44 12 -63 31 -44 9 9 8 11 -5 6 -14 -6 -17 1 -21 37 l-4
43 -1 -42z"/>
<path d="M42 118 c6 -18 28 -21 28 -4 0 9 -7 16 -16 16 -9 0 -14 -5 -12 -12z"/>
<path d="M180 114 c0 -9 5 -14 12 -12 18 6 21 28 4 28 -9 0 -16 -7 -16 -16z"/>
<path d="M222 91 c-2 -37 -5 -42 -19 -36 -15 5 -16 4 -5 -6 19 -20 34 3 29 47
l-4 39 -1 -44z"/>
<path d="M108 103 c12 -2 30 -2 40 0 9 3 -1 5 -23 4 -22 0 -30 -2 -17 -4z"/>
</g>
</svg>
