<?xml version="1.0" standalone="no"?>
<!DOCTYPE svg PUBLIC "-//W3C//DTD SVG 20010904//EN"
 "http://www.w3.org/TR/2001/REC-SVG-20010904/DTD/svg10.dtd">
<svg version="1.0" xmlns="http://www.w3.org/2000/svg"
 width="25.000000pt" height="25.000000pt" viewBox="0 0 25.000000 25.000000"
 preserveAspectRatio="xMidYMid meet">

<g transform="translate(0.000000,25.000000) scale(0.100000,-0.100000)"
fill="#000000" stroke="none">
<path d="M43 194 c-3 -8 -1 -20 6 -27 14 -14 14 -70 0 -84 -14 -14 -4 -43 15
-43 17 0 29 27 16 35 -6 4 -10 15 -10 26 0 14 7 19 25 19 26 0 33 -18 14 -37
-15 -15 -4 -43 16 -43 20 0 31 28 16 43 -20 20 -12 37 19 37 22 0 30 5 30 18
0 10 5 23 11 29 14 14 4 43 -15 43 -17 0 -29 -27 -16 -35 6 -4 10 -15 10 -26
0 -14 -7 -19 -25 -19 -26 0 -33 18 -14 37 15 15 4 43 -16 43 -20 0 -31 -28
-16 -43 19 -19 12 -37 -14 -37 -18 0 -25 5 -25 19 0 11 4 22 10 26 13 8 1 35
-16 35 -8 0 -17 -7 -21 -16z m27 -10 c0 -8 -4 -12 -10 -9 -5 3 -10 10 -10 16
0 5 5 9 10 9 6 0 10 -7 10 -16z m64 -5 c-3 -5 -10 -7 -15 -3 -5 3 -7 10 -3 15
3 5 10 7 15 3 5 -3 7 -10 3 -15z m66 12 c0 -6 -4 -13 -10 -16 -5 -3 -10 1 -10
9 0 9 5 16 10 16 6 0 10 -4 10 -9z m-134 -138 c-10 -10 -19 5 -10 18 6 11 8
11 12 0 2 -7 1 -15 -2 -18z m68 6 c-3 -5 -10 -7 -15 -3 -5 3 -7 10 -3 15 3 5
10 7 15 3 5 -3 7 -10 3 -15z"/>
</g>
</svg>
