<?xml version="1.0" standalone="no"?>
<!DOCTYPE svg PUBLIC "-//W3C//DTD SVG 20010904//EN"
 "http://www.w3.org/TR/2001/REC-SVG-20010904/DTD/svg10.dtd">
<svg version="1.0" xmlns="http://www.w3.org/2000/svg"
 width="25.000000pt" height="25.000000pt" viewBox="0 0 25.000000 25.000000"
 preserveAspectRatio="xMidYMid meet">

<g transform="translate(0.000000,25.000000) scale(0.100000,-0.100000)"
fill="#000000" stroke="none">
<path d="M90 192 c-36 -2 -68 -8 -72 -15 -11 -17 -10 -89 2 -107 6 -9 32 -16
73 -20 74 -6 126 2 138 22 11 16 11 89 1 104 -9 14 -59 20 -142 16z m-34 -112
c16 14 19 71 4 86 -7 7 8 10 45 10 37 0 52 -3 45 -10 -15 -15 -12 -72 5 -86
12 -10 15 -7 21 14 3 15 4 40 0 56 -5 25 -2 30 14 30 11 0 20 -7 20 -15 0 -8
5 -15 10 -15 6 0 10 -11 10 -25 0 -14 -4 -25 -10 -25 -5 0 -10 -9 -10 -20 0
-15 -7 -20 -29 -20 -17 0 -33 5 -36 10 -9 14 -68 13 -83 -2 -20 -20 -42 10
-42 57 0 64 15 64 18 0 3 -48 5 -55 18 -45z m1 33 c-3 -10 -5 -4 -5 12 0 17 2
24 5 18 2 -7 2 -21 0 -30z m113 12 c0 -14 -4 -25 -10 -25 -5 0 -10 11 -10 25
0 14 5 25 10 25 6 0 10 -11 10 -25z m-47 -62 c-7 -2 -21 -2 -30 0 -10 3 -4 5
12 5 17 0 24 -2 18 -5z"/>
<path d="M98 163 c7 -3 16 -2 19 1 4 3 -2 6 -13 5 -11 0 -14 -3 -6 -6z"/>
</g>
</svg>
