<?xml version="1.0" standalone="no"?>
<!DOCTYPE svg PUBLIC "-//W3C//DTD SVG 20010904//EN"
 "http://www.w3.org/TR/2001/REC-SVG-20010904/DTD/svg10.dtd">
<svg version="1.0" xmlns="http://www.w3.org/2000/svg"
 width="64.000000pt" height="64.000000pt" viewBox="0 0 64.000000 64.000000"
 preserveAspectRatio="xMidYMid meet">

<g transform="translate(0.000000,64.000000) scale(0.100000,-0.100000)"
fill="#000000" stroke="none">
<path d="M284 585 c-11 -28 4 -45 41 -45 19 0 35 -4 35 -10 0 -5 -16 -10 -36
-10 -28 0 -48 -9 -83 -37 -37 -31 -56 -39 -101 -43 l-55 -5 -3 -57 c-2 -32 -7
-58 -12 -58 -5 0 -10 26 -12 58 -3 53 -5 57 -28 57 l-25 0 0 -155 0 -155 25 0
c23 0 25 4 28 58 4 74 20 74 24 0 l3 -58 36 -6 c20 -3 56 -22 81 -42 44 -36
47 -37 128 -37 77 0 85 2 124 32 57 43 66 57 66 95 0 45 18 42 22 -5 3 -33 6
-37 34 -40 56 -5 64 14 64 148 0 134 -8 153 -64 148 -28 -3 -31 -7 -34 -40 -6
-70 -21 -38 -24 50 l-3 87 -37 3 c-21 2 -38 7 -38 12 0 5 17 10 38 12 32 3 37
6 37 28 l0 25 -113 3 c-93 2 -113 0 -118 -13z m216 -15 c0 -5 -18 -10 -40 -10
-33 0 -40 -3 -40 -20 0 -13 -7 -20 -20 -20 -13 0 -20 7 -20 20 0 17 -7 20 -40
20 -22 0 -40 5 -40 10 0 6 40 10 100 10 60 0 100 -4 100 -10z m0 -160 l0 -90
30 0 c28 0 30 2 30 41 0 38 1 40 28 37 l27 -3 0 -125 0 -125 -27 -3 c-27 -3
-28 -1 -28 37 0 39 -2 41 -30 41 -29 0 -30 -2 -30 -44 0 -40 -4 -46 -47 -80
-44 -34 -50 -36 -122 -36 -69 1 -80 3 -115 30 l-40 30 102 0 c61 0 102 4 102
10 0 6 -53 10 -140 10 l-140 0 0 140 0 140 46 0 c37 0 54 7 97 40 l52 40 103
0 102 0 0 -90z m-460 -130 c0 -87 -4 -140 -10 -140 -6 0 -10 53 -10 140 0 87
4 140 10 140 6 0 10 -53 10 -140z m40 0 c0 -11 -4 -20 -10 -20 -5 0 -10 9 -10
20 0 11 5 20 10 20 6 0 10 -9 10 -20z"/>
<path d="M140 360 c0 -11 5 -20 10 -20 6 0 10 9 10 20 0 11 -4 20 -10 20 -5 0
-10 -9 -10 -20z"/>
<path d="M190 360 c0 -11 5 -20 10 -20 6 0 10 9 10 20 0 11 -4 20 -10 20 -5 0
-10 -9 -10 -20z"/>
<path d="M240 360 c0 -11 5 -20 10 -20 6 0 10 9 10 20 0 11 -4 20 -10 20 -5 0
-10 -9 -10 -20z"/>
<path d="M290 360 c0 -11 5 -20 10 -20 6 0 10 9 10 20 0 11 -4 20 -10 20 -5 0
-10 -9 -10 -20z"/>
<path d="M340 360 c0 -11 5 -20 10 -20 6 0 10 9 10 20 0 11 -4 20 -10 20 -5 0
-10 -9 -10 -20z"/>
<path d="M390 360 c0 -11 5 -20 10 -20 6 0 10 9 10 20 0 11 -4 20 -10 20 -5 0
-10 -9 -10 -20z"/>
<path d="M440 360 c0 -11 5 -20 10 -20 6 0 10 9 10 20 0 11 -4 20 -10 20 -5 0
-10 -9 -10 -20z"/>
<path d="M144 246 c-10 -26 4 -48 28 -44 17 2 23 10 23 28 0 18 -6 26 -23 28
-13 2 -25 -3 -28 -12z m36 -16 c0 -5 -4 -10 -10 -10 -5 0 -10 5 -10 10 0 6 5
10 10 10 6 0 10 -4 10 -10z"/>
<path d="M220 230 c0 -5 14 -10 30 -10 17 0 30 5 30 10 0 6 -13 10 -30 10 -16
0 -30 -4 -30 -10z"/>
<path d="M300 230 c0 -6 33 -10 80 -10 47 0 80 4 80 10 0 6 -33 10 -80 10 -47
0 -80 -4 -80 -10z"/>
<path d="M400 130 c0 -5 14 -10 30 -10 17 0 30 5 30 10 0 6 -13 10 -30 10 -16
0 -30 -4 -30 -10z"/>
</g>
</svg>
