<?xml version="1.0" standalone="no"?>
<!DOCTYPE svg PUBLIC "-//W3C//DTD SVG 20010904//EN"
 "http://www.w3.org/TR/2001/REC-SVG-20010904/DTD/svg10.dtd">
<svg version="1.0" xmlns="http://www.w3.org/2000/svg"
 width="25.000000pt" height="25.000000pt" viewBox="0 0 25.000000 25.000000"
 preserveAspectRatio="xMidYMid meet">

<g transform="translate(0.000000,25.000000) scale(0.100000,-0.100000)"
fill="#000000" stroke="none">
<path d="M75 210 c-3 -6 1 -7 9 -4 18 7 21 14 7 14 -6 0 -13 -4 -16 -10z"/>
<path d="M150 216 c0 -2 7 -7 16 -10 8 -3 12 -2 9 4 -6 10 -25 14 -25 6z"/>
<path d="M82 178 c-7 -7 -12 -17 -12 -22 0 -6 5 -3 11 7 5 9 14 17 19 17 13 0
13 -27 0 -33 -6 -3 -5 -4 2 -3 15 3 17 38 3 43 -6 2 -16 -2 -23 -9z"/>
<path d="M134 175 c-7 -17 3 -35 19 -34 9 0 9 2 0 6 -15 5 -18 33 -3 33 5 0
14 -8 19 -17 6 -10 11 -13 11 -7 0 12 -20 34 -32 34 -5 0 -11 -7 -14 -15z"/>
<path d="M35 169 c-4 -6 -5 -12 -2 -15 2 -3 7 2 10 11 7 17 1 20 -8 4z"/>
<path d="M206 167 c3 -10 9 -15 12 -12 3 3 0 11 -7 18 -10 9 -11 8 -5 -6z"/>
<path d="M93 93 c7 -23 13 -31 15 -20 4 22 30 22 34 0 2 -11 8 -3 15 20 6 20
7 37 2 37 -5 0 -9 -10 -9 -21 0 -17 -3 -19 -13 -10 -10 8 -17 7 -25 -1 -9 -9
-12 -7 -12 10 0 12 -4 22 -9 22 -5 0 -4 -17 2 -37z"/>
<path d="M60 101 c0 -6 4 -13 10 -16 6 -3 7 1 4 9 -7 18 -14 21 -14 7z"/>
<path d="M176 93 c-6 -14 -5 -15 5 -6 7 7 10 15 7 18 -3 3 -9 -2 -12 -12z"/>
<path d="M30 91 c0 -6 4 -13 10 -16 6 -3 7 1 4 9 -7 18 -14 21 -14 7z"/>
<path d="M206 83 c-6 -14 -5 -15 5 -6 7 7 10 15 7 18 -3 3 -9 -2 -12 -12z"/>
<path d="M77 39 c7 -7 15 -10 18 -7 3 3 -2 9 -12 12 -14 6 -15 5 -6 -5z"/>
<path d="M160 40 c-9 -6 -10 -10 -3 -10 6 0 15 5 18 10 8 12 4 12 -15 0z"/>
</g>
</svg>
